<?xml version="1.0" standalone="no"?>
<!DOCTYPE svg PUBLIC "-//W3C//DTD SVG 20010904//EN"
 "http://www.w3.org/TR/2001/REC-SVG-20010904/DTD/svg10.dtd">
<svg version="1.0" xmlns="http://www.w3.org/2000/svg"
 width="585.000000pt" height="426.000000pt" viewBox="0 0 585.000000 426.000000"
 preserveAspectRatio="xMidYMid meet">

<g transform="translate(0.000000,426.000000) scale(0.100000,-0.100000)"
fill="#000000" stroke="none">
<path d="M2676 3375 c-45 -23 -80 -49 -82 -58 -2 -15 2 -14 29 5 l32 21 -29
-31 c-16 -17 -34 -28 -40 -25 -6 3 -8 3 -4 -2 4 -4 2 -15 -5 -23 -10 -13 -9
-14 8 -5 11 6 27 8 35 6 13 -4 13 -3 0 6 -9 7 -10 11 -3 11 6 0 15 -5 18 -10
4 -7 23 -2 51 14 24 13 44 20 44 15 0 -5 -5 -9 -11 -9 -8 0 -7 -5 1 -15 11
-13 9 -20 -10 -40 -13 -14 -21 -27 -18 -30 2 -3 15 6 28 20 13 14 28 25 34 25
6 0 -11 -22 -37 -48 -26 -27 -50 -60 -53 -75 -6 -35 2 -34 46 6 l35 32 -28
-31 c-20 -22 -25 -34 -17 -39 8 -5 5 -14 -11 -31 -12 -13 -19 -27 -16 -31 4
-3 7 -2 7 4 0 6 7 13 14 16 11 4 13 1 9 -10 -5 -12 -3 -14 8 -8 12 8 12 6 0
-9 -9 -11 -11 -20 -5 -26 7 -7 21 1 39 20 l29 31 3 184 c2 143 0 185 -10 184
-6 -1 -48 -20 -91 -44z"/>
<path d="M2900 3250 c0 -161 1 -172 17 -159 16 13 16 13 0 -11 -20 -28 -23
-65 -5 -54 8 5 9 2 3 -12 -5 -10 -10 -56 -12 -102 -2 -65 0 -82 9 -76 10 6 11
4 1 -7 -7 -7 -13 -31 -13 -53 l0 -40 40 39 c22 21 40 35 40 31 0 -5 9 2 20 15
17 21 19 21 14 4 -4 -11 -16 -30 -27 -42 -13 -15 -16 -23 -8 -23 11 0 11 -3 0
-17 -11 -15 -10 -14 9 1 23 20 30 32 10 20 -7 -5 -8 -3 -4 5 5 7 11 10 14 7 3
-4 17 4 30 16 28 25 21 7 -12 -32 -19 -23 -20 -24 -1 -9 64 51 56 33 -27 -64
-32 -37 -58 -71 -58 -74 0 -4 29 22 65 57 91 90 81 65 -12 -34 -74 -77 -71
-80 8 -8 20 18 48 40 63 47 l26 14 -17 -24 c-10 -14 -22 -25 -26 -25 -5 0 -1
-7 7 -16 15 -14 14 -18 -4 -45 -12 -15 -25 -31 -30 -34 -6 -4 -10 -11 -10 -16
0 -6 14 -1 30 11 17 12 30 17 30 11 0 -6 -4 -11 -9 -11 -5 0 -11 -9 -14 -20
-6 -23 4 -19 42 14 47 41 6 -13 -94 -123 -41 -45 -40 -57 0 -16 6 5 33 30 59
55 48 44 51 42 14 -12 -11 -16 -15 -28 -9 -28 5 0 12 4 16 10 3 5 20 19 38 31
l32 23 -20 -25 c-11 -13 -31 -36 -44 -51 -35 -39 -18 -35 29 8 21 20 44 33 50
29 5 -3 10 -2 10 2 0 5 10 14 21 22 19 11 21 11 16 -3 -4 -9 -2 -16 2 -16 17
0 20 32 21 279 1 233 -1 252 -17 258 -17 6 -84 34 -128 53 -11 5 -31 12 -45
16 -45 12 -50 22 -50 108 0 108 5 114 66 83 27 -13 78 -36 114 -50 36 -14 135
-56 220 -92 85 -37 174 -73 198 -82 l42 -15 0 -95 c0 -107 3 -105 -83 -61 -22
11 -42 16 -45 13 -9 -8 -6 -604 2 -612 3 -3 16 2 28 13 17 14 16 11 -5 -14
-15 -19 -27 -40 -27 -49 0 -8 -30 -47 -67 -86 -53 -57 -39 -50 27 13 3 3 16
14 30 25 19 15 22 16 11 3 -13 -17 -8 -23 14 -18 5 1 -15 -25 -45 -57 -66 -71
-92 -103 -84 -103 4 0 1 -8 -7 -17 -11 -16 90 78 173 159 15 15 28 24 28 20 0
-5 -3 -12 -7 -16 -11 -11 -12 -36 -2 -36 6 0 7 -5 3 -11 -3 -6 -9 -7 -13 -3
-14 20 -30 10 -87 -49 l-59 -62 55 51 c37 35 62 51 77 49 13 -1 31 7 40 18 13
15 14 18 3 12 -13 -8 -13 -6 -2 7 8 9 20 14 28 11 13 -5 13 -8 -1 -23 -25 -28
-17 -35 11 -9 22 21 24 21 18 4 -4 -11 -14 -29 -23 -40 -8 -11 6 0 33 25 27
25 44 36 39 25 -6 -11 -8 -25 -6 -32 2 -6 -1 -14 -6 -18 -7 -4 -8 1 -4 12 5
14 1 13 -20 -6 -15 -14 -27 -27 -27 -30 0 -3 5 0 12 7 21 21 32 13 12 -10 -10
-12 5 -3 34 21 48 39 52 47 50 80 -1 20 1 42 5 48 9 15 222 63 278 63 28 0 29
-2 29 -45 0 -38 -3 -45 -22 -49 -13 -2 -54 -11 -93 -19 -38 -9 -91 -19 -117
-22 -57 -9 -88 -28 -72 -45 9 -9 45 -5 146 16 74 15 143 24 152 21 13 -5 16
-17 14 -54 -3 -47 -4 -48 -43 -59 -22 -7 -78 -17 -125 -24 -145 -20 -140 -18
-140 -52 0 -35 -15 -34 155 -3 44 8 99 14 121 15 35 0 43 -4 48 -22 11 -43 6
-77 -12 -87 -10 -5 -82 -17 -162 -25 -79 -9 -145 -18 -147 -19 -2 -2 -4 -40
-6 -83 -2 -44 -7 -85 -11 -92 -6 -9 -95 -12 -373 -12 l-366 1 21 22 c20 22 21
23 2 23 -10 0 -17 -3 -14 -7 2 -4 -3 -10 -12 -13 -8 -3 -13 -10 -10 -14 3 -5
-16 -9 -41 -11 -43 -2 -45 -1 -32 16 13 17 13 17 -7 1 -11 -10 -35 -18 -53
-18 l-33 0 31 35 c42 48 39 52 -13 13 -24 -18 -42 -36 -39 -40 2 -5 -12 -8
-31 -8 -36 0 -47 12 -24 26 7 5 8 3 3 -6 -6 -9 -4 -11 4 -6 7 5 10 15 7 23 -5
11 -2 13 11 9 10 -4 14 -4 10 0 -4 4 -2 13 5 21 20 25 1 24 -23 -2 -13 -13
-30 -25 -36 -25 -7 0 -13 -4 -13 -10 0 -5 -5 -10 -11 -10 -6 0 -8 8 -5 18 4
11 -2 21 -18 28 -20 9 -28 8 -43 -6 -19 -19 -69 -38 -60 -24 3 5 -6 17 -19 27
-16 12 -24 14 -24 6 0 -7 -3 -9 -7 -6 -3 4 1 15 9 24 15 17 23 93 10 93 -3 0
-15 -8 -26 -17 -19 -16 -19 -16 -7 -1 7 9 10 22 6 28 -4 6 -1 9 6 8 6 -2 14 3
17 11 2 8 0 11 -6 7 -33 -20 -2 62 33 86 7 5 6 8 -1 8 -6 0 -23 -9 -37 -20
-14 -11 -31 -20 -39 -20 -17 0 -198 -93 -378 -195 -88 -49 -170 -67 -170 -36
0 12 20 31 53 52 147 92 484 319 496 333 7 9 18 13 24 9 5 -3 7 -1 3 5 -3 6
-2 13 4 17 5 3 15 15 21 26 9 18 8 19 -9 10 -10 -5 -24 -17 -31 -25 -7 -8 -28
-20 -47 -26 -20 -7 -31 -16 -28 -22 4 -6 3 -8 -3 -5 -9 6 -77 -27 -235 -112
-89 -48 -110 -50 -143 -16 l-25 24 -1 233 c0 128 -4 253 -7 277 -6 39 -9 42
-21 28 -7 -10 -18 -17 -24 -17 -6 0 2 14 18 30 16 17 23 30 15 30 -7 0 -19 -8
-27 -17 -8 -11 -11 -12 -7 -3 7 13 5 13 -9 1 -15 -12 -17 -11 -17 6 0 16 -15
24 -76 43 l-75 22 3 41 c3 41 4 42 38 41 19 -1 52 -5 73 -9 33 -7 37 -5 37 13
0 16 -12 24 -60 38 -34 10 -65 23 -70 29 -5 6 -7 28 -3 49 6 38 7 38 42 32 20
-3 48 -8 64 -12 24 -6 27 -4 27 20 0 15 -3 25 -7 23 -5 -2 -30 3 -58 12 -49
16 -50 17 -49 54 2 53 12 60 61 43 44 -16 53 -13 53 16 0 13 -12 21 -45 29
-56 14 -66 26 -58 73 l6 38 43 -6 c44 -6 63 4 41 21 -21 18 -106 42 -112 33
-3 -5 -19 -143 -36 -307 -16 -164 -34 -338 -39 -388 -6 -49 -17 -160 -24 -245
-14 -147 -24 -250 -46 -457 -6 -50 -10 -110 -10 -132 l0 -41 1235 0 1235 0 0
63 c0 34 -4 98 -10 142 -12 102 -30 358 -50 695 -11 188 -29 419 -35 437 -4
13 -28 8 -155 -30 -47 -14 -96 -27 -110 -29 l-25 -3 0 126 c0 123 -8 159 -37
159 -5 0 -29 9 -53 20 -44 20 -334 149 -500 223 -49 22 -121 53 -160 69 -38
16 -76 32 -82 35 -10 4 -13 -33 -13 -167z m1105 -525 c0 -56 7 -52 -125 -79
-124 -25 -144 -25 -148 3 -8 56 1 65 105 90 54 13 105 28 113 32 8 5 24 8 35
6 17 -2 20 -9 20 -52z m23 -137 c2 -27 -1 -39 -15 -46 -31 -16 -239 -56 -257
-49 -13 5 -16 16 -14 44 3 37 4 38 58 49 30 6 78 18 105 27 28 9 66 15 85 14
33 -2 35 -4 38 -39z m2 -138 c0 -27 -3 -50 -8 -50 -4 0 -62 -11 -130 -25 -68
-14 -130 -25 -138 -25 -18 0 -20 73 -1 88 6 6 48 18 92 27 44 10 94 21 110 25
69 18 75 15 75 -40z m-2148 -31 c9 -5 28 -10 41 -11 16 -1 23 -7 20 -15 -3 -7
0 -13 6 -13 7 0 8 -8 1 -25 -5 -14 -6 -25 -3 -25 4 0 2 -5 -4 -11 -9 -9 -30
-7 -85 7 -92 23 -101 29 -92 68 3 17 9 35 11 39 6 9 79 -1 105 -14z m2159 -98
c10 -50 3 -59 -54 -70 -29 -5 -89 -17 -135 -25 -116 -22 -112 -23 -112 28 0
52 2 53 155 85 124 26 138 24 146 -18z m-2173 -48 c37 -9 70 -21 74 -26 6 -10
1 -77 -7 -86 -3 -2 -31 2 -62 9 -106 23 -108 24 -111 59 -7 67 2 70 106 44z
m1682 -77 c0 -2 -8 -10 -17 -17 -16 -13 -17 -12 -4 4 13 16 21 21 21 13z
m-1685 -73 c73 -16 75 -17 76 -47 2 -35 -1 -59 -7 -65 -4 -4 -81 11 -156 30
-37 9 -38 11 -38 54 0 41 2 45 25 45 13 0 58 -7 100 -17z m-23 -144 c90 -23
107 -35 102 -75 -4 -43 -15 -46 -95 -29 -115 26 -119 29 -119 73 0 38 6 52 21
52 5 0 46 -10 91 -21z m-17 -149 c120 -29 115 -26 115 -77 0 -44 -1 -45 -27
-40 -16 3 -57 10 -93 16 -115 20 -110 17 -110 59 0 31 13 62 26 62 1 0 41 -9
89 -20z"/>
<path d="M2680 3090 c0 -5 5 -10 11 -10 5 0 7 5 4 10 -3 6 -8 10 -11 10 -2 0
-4 -4 -4 -10z"/>
<path d="M1725 3054 c-16 -21 -57 -71 -92 -111 -41 -47 -64 -83 -67 -105 -15
-102 -27 -195 -36 -293 -6 -60 -13 -119 -16 -130 -2 -11 -9 -69 -14 -130 -5
-60 -25 -249 -44 -420 -20 -170 -36 -320 -36 -332 0 -22 3 -23 89 -23 50 0 92
4 95 8 3 5 10 69 16 143 6 74 17 195 26 269 8 74 19 185 24 245 5 61 14 148
20 195 5 47 17 166 25 265 9 99 23 230 31 291 9 62 14 124 12 140 l-3 28 -30
-40z"/>
<path d="M2677 3012 c-19 -21 -13 -33 11 -25 10 3 -5 -18 -33 -48 l-50 -54 53
50 c44 42 50 52 38 61 -12 8 -13 13 -4 22 7 7 10 12 7 12 -3 0 -13 -8 -22 -18z"/>
<path d="M2669 2924 c-111 -112 -97 -119 26 -13 65 56 97 100 83 114 -2 2 -51
-43 -109 -101z"/>
<path d="M4076 2798 c4 -12 10 -81 14 -153 4 -71 17 -229 28 -350 12 -121 26
-281 31 -355 12 -159 30 -351 37 -397 5 -33 5 -33 64 -33 68 0 67 -2 50 89 -5
31 -19 157 -30 281 -12 124 -25 254 -30 290 -6 36 -19 157 -30 270 -11 113
-25 216 -31 230 -14 35 -92 149 -102 150 -5 0 -5 -10 -1 -22z"/>
<path d="M2312 2567 c-37 -38 -53 -67 -36 -67 8 0 52 54 50 61 0 4 8 16 18 28
34 38 11 22 -32 -22z"/>
<path d="M2290 2445 c-13 -14 -22 -27 -19 -29 2 -2 14 10 27 25 29 36 24 38
-8 4z"/>
<path d="M3210 2413 c0 -5 -15 -24 -33 -43 -65 -72 -70 -83 -9 -25 61 58 72
75 52 75 -5 0 -10 -3 -10 -7z"/>
<path d="M2305 2379 c-33 -29 -44 -49 -27 -49 8 0 76 80 68 80 -3 0 -21 -14
-41 -31z"/>
<path d="M3164 2317 c-32 -34 -45 -50 -29 -36 71 61 99 88 94 93 -3 3 -32 -22
-65 -57z"/>
<path d="M2420 2302 c-24 -20 -40 -30 -36 -22 5 8 -9 -1 -30 -21 -21 -20 -50
-46 -64 -59 -30 -27 -23 -25 59 19 35 19 68 45 74 58 5 12 14 20 20 16 6 -3 7
-1 3 5 -4 7 -3 12 2 12 6 0 12 7 16 15 7 20 8 20 -44 -23z"/>
<path d="M2285 2260 c-10 -11 -16 -22 -13 -25 3 -3 13 4 23 15 10 11 16 22 13
25 -3 3 -13 -4 -23 -15z"/>
<path d="M2734 2148 l-29 -33 33 29 c30 28 37 36 29 36 -2 0 -16 -15 -33 -32z"/>
<path d="M3200 2165 c-10 -12 -10 -15 3 -15 8 0 17 7 21 15 3 8 2 15 -3 15 -5
0 -14 -7 -21 -15z"/>
<path d="M2570 2045 c-13 -14 -18 -25 -12 -25 6 0 17 9 25 20 8 11 17 17 22
12 5 -4 5 -1 1 6 -9 16 -9 16 -36 -13z"/>
<path d="M2860 1811 c0 -6 4 -13 10 -16 6 -3 7 1 4 9 -7 18 -14 21 -14 7z"/>
<path d="M2823 1786 c1 -6 -4 -10 -10 -8 -7 1 -13 -5 -13 -14 0 -8 -4 -13 -9
-9 -5 3 -12 -4 -16 -15 -3 -11 -15 -25 -26 -30 -15 -9 -17 -13 -7 -25 11 -11
17 -9 41 13 15 14 27 30 27 35 0 5 9 21 19 36 15 21 17 28 6 28 -8 0 -13 -5
-12 -11z"/>
<path d="M3124 1698 l-19 -23 23 19 c12 11 22 21 22 23 0 8 -8 2 -26 -19z"/>
</g>
</svg>
